<svg width="48" height="48" viewBox="0 0 48 48" fill="none" xmlns="http://www.w3.org/2000/svg">
<path d="M46.5 17.142C46.4767 12.2528 34.899 9.61426 24 9.61426C13.101 9.61426 1.5 12.258 1.5 17.1563V17.181V21.831V21.9098C1.5 23.3558 2.5155 24.603 4.22025 25.6463V37.6358C4.22025 37.8347 4.29927 38.0254 4.43992 38.1661C4.58057 38.3067 4.77134 38.3858 4.97025 38.3858C5.16916 38.3858 5.35993 38.3067 5.50058 38.1661C5.64123 38.0254 5.72025 37.8347 5.72025 37.6358V26.4405C6.4623 26.7727 7.22222 27.0634 7.9965 27.3113V30.7935C7.9965 30.9924 8.07552 31.1832 8.21617 31.3238C8.35682 31.4645 8.54759 31.5435 8.7465 31.5435C8.94541 31.5435 9.13618 31.4645 9.27683 31.3238C9.41748 31.1832 9.4965 30.9924 9.4965 30.7935V27.7575C14.2421 28.9284 19.116 29.4983 24.0037 29.454C28.8898 29.4985 33.762 28.9283 38.5057 27.7568V30.7935C38.5057 30.9924 38.5848 31.1832 38.7254 31.3238C38.8661 31.4645 39.0568 31.5435 39.2557 31.5435C39.4547 31.5435 39.6454 31.4645 39.7861 31.3238C39.9267 31.1832 40.0057 30.9924 40.0057 30.7935V27.3113C40.777 27.064 41.5339 26.774 42.273 26.4428V37.6358C42.273 37.8347 42.352 38.0254 42.4927 38.1661C42.6333 38.3067 42.8241 38.3858 43.023 38.3858C43.2219 38.3858 43.4127 38.3067 43.5533 38.1661C43.694 38.0254 43.773 37.8347 43.773 37.6358V25.65C45.4815 24.6075 46.5 23.3573 46.5 21.9083V17.1563C46.5 17.151 46.5 17.1473 46.5 17.142ZM24 11.1143C36.375 11.1143 45 14.298 45 17.1563C45 20.0145 36.375 23.1975 24 23.1975C11.6542 23.1975 3.0435 20.025 3.00375 17.175V17.1495C3.015 14.2935 11.6348 11.1143 24 11.1143ZM45 21.9143C45 22.7835 44.1982 23.682 42.741 24.5123C42.7222 24.5198 42.708 24.5333 42.69 24.5423C39.336 26.4293 32.5703 27.9555 24.0037 27.9555C11.7173 27.9555 3.1275 24.8183 3.00375 21.9773C3.00375 21.9563 3.00375 21.9353 3.00375 21.9143V20.0108C6.4815 23.0723 15.4538 24.6975 24.0037 24.6975C32.5538 24.6975 41.5283 23.0708 45.0037 20.0078V21.1695C45.0037 21.453 45.0037 21.7035 45.0247 21.9128L45 21.9143Z" fill="#FB5B32"/>
<path d="M14.8134 14.7503C21.2879 13.4058 27.979 13.5031 34.4116 15.0353C34.4687 15.0487 34.5271 15.0555 34.5856 15.0555C34.7689 15.0546 34.9454 14.9867 35.082 14.8645C35.2186 14.7424 35.3057 14.5744 35.3269 14.3924C35.3481 14.2104 35.302 14.027 35.1972 13.8767C35.0924 13.7263 34.9362 13.6196 34.7581 13.5765C28.1117 11.9926 21.198 11.8917 14.5081 13.281C14.4117 13.301 14.3201 13.3398 14.2386 13.3952C14.1571 13.4506 14.0874 13.5215 14.0333 13.6039C13.9241 13.7702 13.8854 13.9731 13.9258 14.1679C13.9661 14.3627 14.0823 14.5336 14.2486 14.6428C14.4149 14.752 14.6186 14.7907 14.8134 14.7503Z" fill="#FB5B32"/>
<path d="M37.523 15.7276C37.6157 15.7661 37.715 15.7865 37.8155 15.7876C38.0135 15.7847 38.2026 15.7047 38.3426 15.5647C38.4826 15.4247 38.5626 15.2356 38.5655 15.0376C38.5632 14.8374 38.4824 14.6462 38.3405 14.5051C38.1969 14.3713 38.008 14.2969 37.8117 14.2969C37.6155 14.2969 37.4265 14.3713 37.283 14.5051C37.1435 14.6473 37.0654 14.8384 37.0654 15.0376C37.0654 15.2367 37.1435 15.4279 37.283 15.5701C37.3519 15.6377 37.4335 15.6912 37.523 15.7276Z" fill="#FB5B32"/>
</svg>
