<svg width="20" height="20" viewBox="0 0 20 20" fill="none" xmlns="http://www.w3.org/2000/svg">
<path d="M15.832 19.1667H4.16536C3.28131 19.1667 2.43346 18.8155 1.80834 18.1904C1.18322 17.5652 0.832031 16.7174 0.832031 15.8333V5.83333C0.832031 4.94928 1.18322 4.10143 1.80834 3.47631C2.43346 2.85119 3.28131 2.5 4.16536 2.5H15.832C16.7161 2.5 17.5639 2.85119 18.1891 3.47631C18.8142 4.10143 19.1654 4.94928 19.1654 5.83333V15.8333C19.1654 16.7174 18.8142 17.5652 18.1891 18.1904C17.5639 18.8155 16.7161 19.1667 15.832 19.1667ZM4.16536 4.16667C3.72334 4.16667 3.29941 4.34226 2.98685 4.65482C2.67429 4.96738 2.4987 5.39131 2.4987 5.83333V15.8333C2.4987 16.2754 2.67429 16.6993 2.98685 17.0118C3.29941 17.3244 3.72334 17.5 4.16536 17.5H15.832C16.2741 17.5 16.698 17.3244 17.0105 17.0118C17.3231 16.6993 17.4987 16.2754 17.4987 15.8333V5.83333C17.4987 5.39131 17.3231 4.96738 17.0105 4.65482C16.698 4.34226 16.2741 4.16667 15.832 4.16667H4.16536Z" fill="#FB5B32"/>
<path d="M6.66667 1.66665C6.66667 1.20641 6.29357 0.833313 5.83333 0.833313C5.3731 0.833313 5 1.20641 5 1.66665V4.99998C5 5.46022 5.3731 5.83331 5.83333 5.83331C6.29357 5.83331 6.66667 5.46022 6.66667 4.99998V1.66665Z" fill="#FB5B32"/>
<path d="M14.9987 1.66665C14.9987 1.20641 14.6256 0.833313 14.1654 0.833313C13.7051 0.833313 13.332 1.20641 13.332 1.66665V4.99998C13.332 5.46022 13.7051 5.83331 14.1654 5.83331C14.6256 5.83331 14.9987 5.46022 14.9987 4.99998V1.66665Z" fill="#FB5B32"/>
<path d="M14.9974 7.5H4.9974C4.53716 7.5 4.16406 7.8731 4.16406 8.33333C4.16406 8.79357 4.53716 9.16667 4.9974 9.16667H14.9974C15.4576 9.16667 15.8307 8.79357 15.8307 8.33333C15.8307 7.8731 15.4576 7.5 14.9974 7.5Z" fill="#FB5B32"/>
</svg>
